%FSLAX43Y43*%
%MOMM*%
G71*
G01*
G75*
G04 Layer_Color=8388736*
%ADD10R,0.900X1.000*%
%ADD11R,2.500X2.000*%
%ADD12R,2.300X0.500*%
%ADD13R,2.600X2.200*%
%ADD14R,0.900X1.400*%
%ADD15R,1.100X1.400*%
%ADD16O,0.600X2.200*%
%ADD17R,0.600X1.300*%
%ADD18R,1.400X1.100*%
G04:AMPARAMS|DCode=19|XSize=1.7mm|YSize=2.2mm|CornerRadius=0.043mm|HoleSize=0mm|Usage=FLASHONLY|Rotation=90.000|XOffset=0mm|YOffset=0mm|HoleType=Round|Shape=RoundedRectangle|*
%AMROUNDEDRECTD19*
21,1,1.700,2.115,0,0,90.0*
21,1,1.615,2.200,0,0,90.0*
1,1,0.085,1.058,0.808*
1,1,0.085,1.058,-0.808*
1,1,0.085,-1.058,-0.808*
1,1,0.085,-1.058,0.808*
%
%ADD19ROUNDEDRECTD19*%
%ADD20O,1.800X0.300*%
%ADD21O,0.300X1.800*%
%ADD22R,1.400X0.900*%
%ADD23R,1.000X2.100*%
%ADD24R,5.400X6.200*%
%ADD25C,0.254*%
%ADD26C,0.500*%
%ADD27C,1.000*%
%ADD28C,2.000*%
%ADD29C,0.600*%
%ADD30R,1.500X1.500*%
%ADD31C,1.500*%
%ADD32R,3.000X3.000*%
%ADD33R,1.500X1.500*%
%ADD34C,1.524*%
%ADD35C,1.270*%
%ADD36C,1.100*%
%ADD37C,1.000*%
%ADD38R,1.000X0.900*%
%ADD39C,0.250*%
%ADD40C,0.600*%
%ADD41C,0.200*%
%ADD42C,0.100*%
%ADD43C,0.400*%
%ADD44R,1.103X1.203*%
%ADD45R,2.703X2.203*%
%ADD46R,2.503X0.703*%
%ADD47R,2.803X2.403*%
%ADD48R,1.103X1.603*%
%ADD49R,1.303X1.603*%
%ADD50O,0.803X2.403*%
%ADD51R,0.803X1.503*%
%ADD52R,1.603X1.303*%
G04:AMPARAMS|DCode=53|XSize=1.903mm|YSize=2.403mm|CornerRadius=0.144mm|HoleSize=0mm|Usage=FLASHONLY|Rotation=90.000|XOffset=0mm|YOffset=0mm|HoleType=Round|Shape=RoundedRectangle|*
%AMROUNDEDRECTD53*
21,1,1.903,2.115,0,0,90.0*
21,1,1.615,2.403,0,0,90.0*
1,1,0.288,1.058,0.808*
1,1,0.288,1.058,-0.808*
1,1,0.288,-1.058,-0.808*
1,1,0.288,-1.058,0.808*
%
%ADD53ROUNDEDRECTD53*%
%ADD54O,2.003X0.503*%
%ADD55O,0.503X2.003*%
%ADD56R,1.603X1.103*%
%ADD57R,1.203X2.303*%
%ADD58R,5.603X6.403*%
%ADD59C,0.803*%
%ADD60R,1.703X1.703*%
%ADD61C,1.703*%
%ADD62R,3.203X3.203*%
%ADD63R,1.703X1.703*%
%ADD64C,1.727*%
%ADD65C,1.473*%
D44*
X17150Y12500D02*
D03*
X18850D02*
D03*
X32750Y24200D02*
D03*
X34450D02*
D03*
X18150Y26300D02*
D03*
X19850D02*
D03*
X32750Y19900D02*
D03*
X34450D02*
D03*
X32750Y22000D02*
D03*
X34450D02*
D03*
D45*
X8450Y7350D02*
D03*
Y16250D02*
D03*
X2950D02*
D03*
Y7350D02*
D03*
D46*
X8550Y10200D02*
D03*
Y11000D02*
D03*
Y11800D02*
D03*
Y12600D02*
D03*
Y13400D02*
D03*
D47*
X42600Y27300D02*
D03*
X47600D02*
D03*
D48*
X27850Y26000D02*
D03*
X29550D02*
D03*
X14950Y26300D02*
D03*
X16650D02*
D03*
D49*
X42050Y35300D02*
D03*
X43550D02*
D03*
X47550D02*
D03*
X49050D02*
D03*
X3550D02*
D03*
X5050D02*
D03*
X20050D02*
D03*
X21550D02*
D03*
X9050D02*
D03*
X10550D02*
D03*
X25550D02*
D03*
X27050D02*
D03*
X14550D02*
D03*
X16050D02*
D03*
X31050D02*
D03*
X32550D02*
D03*
X36550D02*
D03*
X38050D02*
D03*
X18850Y45200D02*
D03*
X17350D02*
D03*
X31050Y45200D02*
D03*
X32550D02*
D03*
X42550Y5200D02*
D03*
X44050D02*
D03*
X41250Y5200D02*
D03*
X39750D02*
D03*
D50*
X48905Y42400D02*
D03*
X47635D02*
D03*
X46365D02*
D03*
X45095D02*
D03*
X48905Y37600D02*
D03*
X47635D02*
D03*
X46365D02*
D03*
X45095D02*
D03*
X43405Y42400D02*
D03*
X42135D02*
D03*
X40865D02*
D03*
X39595D02*
D03*
X43405Y37600D02*
D03*
X42135D02*
D03*
X40865D02*
D03*
X39595D02*
D03*
X37905Y42400D02*
D03*
X36635D02*
D03*
X35365D02*
D03*
X34095D02*
D03*
X37905Y37600D02*
D03*
X36635D02*
D03*
X35365D02*
D03*
X34095D02*
D03*
X32405Y42400D02*
D03*
X31135D02*
D03*
X29865D02*
D03*
X28595D02*
D03*
X32405Y37600D02*
D03*
X31135D02*
D03*
X29865D02*
D03*
X28595D02*
D03*
X10405Y42400D02*
D03*
X9135D02*
D03*
X7865D02*
D03*
X6595D02*
D03*
X10405Y37600D02*
D03*
X9135D02*
D03*
X7865D02*
D03*
X6595D02*
D03*
X26905Y42400D02*
D03*
X25635D02*
D03*
X24365D02*
D03*
X23095D02*
D03*
X26905Y37600D02*
D03*
X25635D02*
D03*
X24365D02*
D03*
X23095D02*
D03*
X4905Y42400D02*
D03*
X3635D02*
D03*
X2365D02*
D03*
X1095D02*
D03*
X4905Y37600D02*
D03*
X3635D02*
D03*
X2365D02*
D03*
X1095D02*
D03*
X21405Y42400D02*
D03*
X20135D02*
D03*
X18865D02*
D03*
X17595D02*
D03*
X21405Y37600D02*
D03*
X20135D02*
D03*
X18865D02*
D03*
X17595D02*
D03*
X15905Y42400D02*
D03*
X14635D02*
D03*
X13365D02*
D03*
X12095D02*
D03*
X15905Y37600D02*
D03*
X14635D02*
D03*
X13365D02*
D03*
X12095D02*
D03*
X48705Y24000D02*
D03*
X47435D02*
D03*
X46165D02*
D03*
X44895D02*
D03*
X48705Y19200D02*
D03*
X47435D02*
D03*
X46165D02*
D03*
X44895D02*
D03*
D51*
X48000Y33450D02*
D03*
X48950Y31350D02*
D03*
X47050D02*
D03*
X42500Y33450D02*
D03*
X43450Y31350D02*
D03*
X41550D02*
D03*
X37000Y33450D02*
D03*
X37950Y31350D02*
D03*
X36050D02*
D03*
X15000Y33450D02*
D03*
X15950Y31350D02*
D03*
X14050D02*
D03*
X31500Y33450D02*
D03*
X32450Y31350D02*
D03*
X30550D02*
D03*
X9500Y33450D02*
D03*
X10450Y31350D02*
D03*
X8550D02*
D03*
X26000Y33450D02*
D03*
X26950Y31350D02*
D03*
X25050D02*
D03*
X4000Y33450D02*
D03*
X4950Y31350D02*
D03*
X3050D02*
D03*
X20500Y33450D02*
D03*
X21450Y31350D02*
D03*
X19550D02*
D03*
D52*
X8300Y23550D02*
D03*
Y22050D02*
D03*
X36100Y13250D02*
D03*
Y11750D02*
D03*
X36100Y15050D02*
D03*
Y16550D02*
D03*
X39800Y1350D02*
D03*
Y2850D02*
D03*
D53*
X32800Y12100D02*
D03*
Y16300D02*
D03*
D54*
X29550Y14550D02*
D03*
X29550Y15050D02*
D03*
Y15550D02*
D03*
Y16050D02*
D03*
Y16550D02*
D03*
Y17050D02*
D03*
Y17550D02*
D03*
Y18050D02*
D03*
Y18550D02*
D03*
Y19050D02*
D03*
Y19550D02*
D03*
X29550Y20050D02*
D03*
Y20550D02*
D03*
X29550Y21050D02*
D03*
Y21550D02*
D03*
Y22050D02*
D03*
X18450D02*
D03*
Y21550D02*
D03*
Y21050D02*
D03*
Y20550D02*
D03*
Y20050D02*
D03*
X18450Y19550D02*
D03*
Y19050D02*
D03*
Y18550D02*
D03*
X18450Y18050D02*
D03*
Y17550D02*
D03*
Y17050D02*
D03*
Y16550D02*
D03*
Y16050D02*
D03*
X18450Y15550D02*
D03*
Y15050D02*
D03*
X18450Y14550D02*
D03*
D55*
X27750Y23850D02*
D03*
X27250D02*
D03*
X26750D02*
D03*
X26250Y23850D02*
D03*
X25750D02*
D03*
X25250Y23850D02*
D03*
X24750D02*
D03*
X24250D02*
D03*
X23750D02*
D03*
X23250D02*
D03*
X22750D02*
D03*
X22250D02*
D03*
X21750D02*
D03*
X21250D02*
D03*
X20750D02*
D03*
X20250D02*
D03*
X20250Y12750D02*
D03*
X20750Y12750D02*
D03*
X21250D02*
D03*
X21750Y12750D02*
D03*
X22250D02*
D03*
X22750D02*
D03*
X23250D02*
D03*
X23750D02*
D03*
X24250Y12750D02*
D03*
X24750D02*
D03*
X25250Y12750D02*
D03*
X25750D02*
D03*
X26250D02*
D03*
X26750D02*
D03*
X27250D02*
D03*
X27750D02*
D03*
D56*
X29400Y10650D02*
D03*
Y12350D02*
D03*
D57*
X39715Y7425D02*
D03*
X44285Y7425D02*
D03*
D58*
X42000Y14175D02*
D03*
D59*
X5950Y14000D02*
D03*
Y9600D02*
D03*
D60*
X36900Y6740D02*
D03*
X33900D02*
D03*
X30900D02*
D03*
X3900Y19600D02*
D03*
X17500Y9200D02*
D03*
X36600Y24500D02*
D03*
X21700Y9200D02*
D03*
X24900Y6740D02*
D03*
X27900D02*
D03*
X13500Y9200D02*
D03*
D61*
X36900Y4200D02*
D03*
Y1660D02*
D03*
X33900Y4200D02*
D03*
Y1660D02*
D03*
X30900Y4200D02*
D03*
Y1660D02*
D03*
X3900Y27220D02*
D03*
Y24680D02*
D03*
Y22140D02*
D03*
X38560Y45000D02*
D03*
X36020D02*
D03*
X17500Y1580D02*
D03*
Y4120D02*
D03*
Y6660D02*
D03*
X24960Y45000D02*
D03*
X22420D02*
D03*
X11460D02*
D03*
X8920D02*
D03*
X39140Y19420D02*
D03*
X36600D02*
D03*
X39140Y21960D02*
D03*
X36600D02*
D03*
X39140Y24500D02*
D03*
X21700Y6660D02*
D03*
Y4120D02*
D03*
Y1580D02*
D03*
X24900Y1660D02*
D03*
Y4200D02*
D03*
X27900Y1660D02*
D03*
Y4200D02*
D03*
X13500Y6660D02*
D03*
Y4120D02*
D03*
Y1580D02*
D03*
D62*
X47500Y8500D02*
D03*
Y12500D02*
D03*
D63*
X41100Y45000D02*
D03*
X27500D02*
D03*
X14000D02*
D03*
D64*
X3000Y3000D02*
D03*
X47000D02*
D03*
Y47000D02*
D03*
X3000D02*
D03*
D65*
X42100Y14175D02*
D03*
Y16100D02*
D03*
Y12300D02*
D03*
M02*
