%FSLAX43Y43*%
%MOMM*%
G71*
G01*
G75*
G04 Layer_Color=65535*
%ADD10R,0.900X1.000*%
%ADD11R,2.500X2.000*%
%ADD12R,2.300X0.500*%
%ADD13R,2.600X2.200*%
%ADD14R,0.900X1.400*%
%ADD15R,1.100X1.400*%
%ADD16O,0.600X2.200*%
%ADD17R,0.600X1.300*%
%ADD18R,1.400X1.100*%
G04:AMPARAMS|DCode=19|XSize=1.7mm|YSize=2.2mm|CornerRadius=0.043mm|HoleSize=0mm|Usage=FLASHONLY|Rotation=90.000|XOffset=0mm|YOffset=0mm|HoleType=Round|Shape=RoundedRectangle|*
%AMROUNDEDRECTD19*
21,1,1.700,2.115,0,0,90.0*
21,1,1.615,2.200,0,0,90.0*
1,1,0.085,1.058,0.808*
1,1,0.085,1.058,-0.808*
1,1,0.085,-1.058,-0.808*
1,1,0.085,-1.058,0.808*
%
%ADD19ROUNDEDRECTD19*%
%ADD20O,1.800X0.300*%
%ADD21O,0.300X1.800*%
%ADD22R,1.400X0.900*%
%ADD23R,1.000X2.100*%
%ADD24R,5.400X6.200*%
%ADD25C,0.254*%
%ADD26C,0.500*%
%ADD27C,1.000*%
%ADD28C,2.000*%
%ADD29C,0.600*%
%ADD30R,1.500X1.500*%
%ADD31C,1.500*%
%ADD32R,3.000X3.000*%
%ADD33R,1.500X1.500*%
%ADD34C,1.524*%
%ADD35C,1.270*%
%ADD36C,1.100*%
%ADD37C,1.000*%
%ADD38R,1.000X0.900*%
%ADD39C,0.250*%
%ADD40C,0.600*%
%ADD41C,0.200*%
%ADD42C,0.100*%
%ADD43C,0.400*%
D25*
X6000Y3000D02*
G03*
X6000Y3000I-3000J0D01*
G01*
X50000D02*
G03*
X50000Y3000I-3000J0D01*
G01*
Y47000D02*
G03*
X50000Y47000I-3000J0D01*
G01*
X6000D02*
G03*
X6000Y47000I-3000J0D01*
G01*
X3000Y50000D02*
X47000D01*
X0Y3000D02*
Y47000D01*
X50000Y3000D02*
Y47000D01*
X3000Y0D02*
X47000D01*
X2124Y25300D02*
Y24792D01*
Y25046D01*
X600D01*
Y25300D01*
Y24792D01*
Y23015D02*
Y24030D01*
X1616Y23015D01*
X1870D01*
X2124Y23269D01*
Y23776D01*
X1870Y24030D01*
Y21491D02*
X2124Y21745D01*
Y22253D01*
X1870Y22507D01*
X854D01*
X600Y22253D01*
Y21745D01*
X854Y21491D01*
X36300Y48924D02*
Y48670D01*
X36808Y48162D01*
X37316Y48670D01*
Y48924D01*
X36808Y48162D02*
Y47400D01*
X38077Y48416D02*
X38585D01*
X38839Y48162D01*
Y47400D01*
X38077D01*
X37824Y47654D01*
X38077Y47908D01*
X38839D01*
X39347Y48416D02*
Y47654D01*
X39601Y47400D01*
X39855Y47654D01*
X40109Y47400D01*
X40363Y47654D01*
Y48416D01*
X22600Y47400D02*
Y48924D01*
X23362D01*
X23616Y48670D01*
Y48162D01*
X23362Y47908D01*
X22600D01*
X23108D02*
X23616Y47400D01*
X24377D02*
X24885D01*
X25139Y47654D01*
Y48162D01*
X24885Y48416D01*
X24377D01*
X24124Y48162D01*
Y47654D01*
X24377Y47400D01*
X25647D02*
X26155D01*
X25901D01*
Y48924D01*
X25647D01*
X26917Y47400D02*
X27424D01*
X27171D01*
Y48924D01*
X26917D01*
X8400Y47400D02*
Y48924D01*
X9162D01*
X9416Y48670D01*
Y48162D01*
X9162Y47908D01*
X8400D01*
X9924Y47400D02*
X10431D01*
X10177D01*
Y48416D01*
X9924D01*
X11447Y48670D02*
Y48416D01*
X11193D01*
X11701D01*
X11447D01*
Y47654D01*
X11701Y47400D01*
X13478Y48416D02*
X12717D01*
X12463Y48162D01*
Y47654D01*
X12717Y47400D01*
X13478D01*
X13986Y48924D02*
Y47400D01*
Y48162D01*
X14240Y48416D01*
X14748D01*
X15002Y48162D01*
Y47400D01*
D26*
X34800Y11400D02*
G03*
X34800Y11400I-100J0D01*
G01*
X10101Y15071D02*
X13400D01*
X10101Y15228D02*
X13400D01*
X11043Y16171D02*
X12300D01*
X10101Y14600D02*
Y17114D01*
X11043D01*
X10101Y16957D01*
X11672Y15228D02*
Y16171D01*
X13400Y14600D02*
Y17114D01*
X12457D01*
X13400Y16957D01*
X11200Y17884D02*
X13400Y18826D01*
X11200Y18041D02*
X13086Y18826D01*
X11200Y19769D02*
X13400Y18826D01*
X11200Y17569D02*
Y18512D01*
Y19140D02*
Y20083D01*
Y20853D02*
X13400Y21796D01*
X11200Y21010D02*
X13086Y21796D01*
X11200Y22738D02*
X13400Y21796D01*
X11200Y20539D02*
Y21481D01*
Y22110D02*
Y23052D01*
X10572Y25708D02*
X11043Y25865D01*
X10101D01*
X10572Y25708D01*
X10258Y25393D01*
X10101Y24922D01*
Y24608D01*
X10258Y24137D01*
X10572Y23822D01*
X10886Y23665D01*
X11358Y23508D01*
X12143D01*
X12614Y23665D01*
X12929Y23822D01*
X13243Y24137D01*
X13400Y24608D01*
Y24922D01*
X13243Y25393D01*
X12929Y25708D01*
X10101Y24608D02*
X10258Y24294D01*
X10572Y23979D01*
X10886Y23822D01*
X11358Y23665D01*
X12143D01*
X12614Y23822D01*
X12929Y23979D01*
X13243Y24294D01*
X13400Y24608D01*
X12143Y25708D02*
X13400D01*
X12143Y25865D02*
X13400D01*
X12143Y25236D02*
Y26336D01*
X10572Y28960D02*
X11043Y29117D01*
X10101D01*
X10572Y28960D01*
X10258Y28646D01*
X10101Y28174D01*
Y27860D01*
X10258Y27389D01*
X10572Y27074D01*
X10886Y26917D01*
X11358Y26760D01*
X12143D01*
X12614Y26917D01*
X12929Y27074D01*
X13243Y27389D01*
X13400Y27860D01*
Y28174D01*
X13243Y28646D01*
X12929Y28960D01*
X12614Y29117D01*
X10101Y27860D02*
X10258Y27546D01*
X10572Y27232D01*
X10886Y27074D01*
X11358Y26917D01*
X12143D01*
X12614Y27074D01*
X12929Y27232D01*
X13243Y27546D01*
X13400Y27860D01*
D39*
X10375Y13400D02*
G03*
X10375Y13400I-125J0D01*
G01*
X41425Y29050D02*
G03*
X41425Y29050I-125J0D01*
G01*
X44370Y37600D02*
G03*
X44370Y37600I-125J0D01*
G01*
X38870D02*
G03*
X38870Y37600I-125J0D01*
G01*
X33370D02*
G03*
X33370Y37600I-125J0D01*
G01*
X27870D02*
G03*
X27870Y37600I-125J0D01*
G01*
X5870D02*
G03*
X5870Y37600I-125J0D01*
G01*
X22370D02*
G03*
X22370Y37600I-125J0D01*
G01*
X370D02*
G03*
X370Y37600I-125J0D01*
G01*
X29675Y13850D02*
G03*
X29675Y13850I-125J0D01*
G01*
X16870Y37600D02*
G03*
X16870Y37600I-125J0D01*
G01*
X11370D02*
G03*
X11370Y37600I-125J0D01*
G01*
X49680Y24000D02*
G03*
X49680Y24000I-125J0D01*
G01*
X39840Y9025D02*
G03*
X39840Y9025I-125J0D01*
G01*
D40*
X27550Y15050D02*
G03*
X27550Y15050I-300J0D01*
G01*
D41*
X17800Y12900D02*
X18200D01*
X17800Y12100D02*
X18200D01*
X0Y6850D02*
Y16750D01*
Y6850D02*
X1300D01*
X4600D02*
X6800D01*
X4600Y16750D02*
X6800D01*
X0D02*
X1300D01*
X9600Y8750D02*
Y9550D01*
Y14050D02*
Y14850D01*
X41950Y25550D02*
Y25600D01*
Y29000D02*
Y29050D01*
X44300Y25550D02*
Y29050D01*
X48250Y25550D02*
Y25600D01*
Y29000D02*
Y29050D01*
X41950D02*
X48250D01*
X41950Y25550D02*
X48250D01*
X35630Y390D02*
Y8010D01*
Y390D02*
X38170D01*
Y8010D01*
X35630D02*
X38170D01*
X32630Y390D02*
Y8010D01*
Y390D02*
X35170D01*
Y8010D01*
X32630D02*
X35170D01*
X29630Y390D02*
Y8010D01*
Y390D02*
X32170D01*
Y8010D01*
X29630D02*
X32170D01*
X2630Y18330D02*
X5170D01*
X2630D02*
Y28490D01*
X5170Y18330D02*
Y28490D01*
X2630D02*
X5170D01*
X34750Y46270D02*
X42370D01*
X34750Y43730D02*
Y46270D01*
Y43730D02*
X42370D01*
Y46270D01*
X49500Y39100D02*
Y40900D01*
X44500Y39100D02*
Y40900D01*
X49500D01*
X44500Y39100D02*
X49500D01*
X48700Y33100D02*
X49500D01*
Y32400D02*
Y33100D01*
X46500D02*
X47300D01*
X46500Y32400D02*
Y33100D01*
X44000Y39100D02*
Y40900D01*
X39000Y39100D02*
Y40900D01*
X44000D01*
X39000Y39100D02*
X44000D01*
X43200Y33100D02*
X44000D01*
Y32400D02*
Y33100D01*
X41000D02*
X41800D01*
X41000Y32400D02*
Y33100D01*
X38500Y39100D02*
Y40900D01*
X33500Y39100D02*
Y40900D01*
X38500D01*
X33500Y39100D02*
X38500D01*
X37700Y33100D02*
X38500D01*
Y32400D02*
Y33100D01*
X35500D02*
X36300D01*
X35500Y32400D02*
Y33100D01*
X16230Y10470D02*
X18770D01*
Y310D02*
Y10470D01*
X16230Y310D02*
Y10470D01*
Y310D02*
X18770D01*
X33000Y39100D02*
Y40900D01*
X28000Y39100D02*
Y40900D01*
X33000D01*
X28000Y39100D02*
X33000D01*
X15700Y33100D02*
X16500D01*
Y32400D02*
Y33100D01*
X13500D02*
X14300D01*
X13500Y32400D02*
Y33100D01*
X32200D02*
X33000D01*
Y32400D02*
Y33100D01*
X30000D02*
X30800D01*
X30000Y32400D02*
Y33100D01*
X31200Y11900D02*
X31400Y11700D01*
X31200Y11900D02*
Y16500D01*
X31400Y16700D01*
X34200D02*
X34400Y16500D01*
Y11900D02*
Y16500D01*
X34200Y11700D02*
X34400Y11900D01*
X11000Y39100D02*
Y40900D01*
X6000Y39100D02*
Y40900D01*
X11000D01*
X6000Y39100D02*
X11000D01*
X27500D02*
Y40900D01*
X22500Y39100D02*
Y40900D01*
X27500D01*
X22500Y39100D02*
X27500D01*
X10200Y33100D02*
X11000D01*
Y32400D02*
Y33100D01*
X8000D02*
X8800D01*
X8000Y32400D02*
Y33100D01*
X26700D02*
X27500D01*
Y32400D02*
Y33100D01*
X24500D02*
X25300D01*
X24500Y32400D02*
Y33100D01*
X5500Y39100D02*
Y40900D01*
X500Y39100D02*
Y40900D01*
X5500D01*
X500Y39100D02*
X5500D01*
X4700Y33100D02*
X5500D01*
Y32400D02*
Y33100D01*
X2500D02*
X3300D01*
X2500Y32400D02*
Y33100D01*
X21200D02*
X22000D01*
Y32400D02*
Y33100D01*
X19000D02*
X19800D01*
X19000Y32400D02*
Y33100D01*
X33400Y24600D02*
X33800D01*
X33400Y23800D02*
X33800D01*
X18800Y26700D02*
X19200D01*
X18800Y25900D02*
X19200D01*
X28250Y14050D02*
X28250Y22550D01*
X19750Y14050D02*
Y22550D01*
Y14050D02*
X28250D01*
X19750Y22550D02*
X28250Y22550D01*
X21150Y46270D02*
X28770D01*
X21150Y43730D02*
Y46270D01*
Y43730D02*
X28770D01*
Y46270D01*
X7650D02*
X15270D01*
X7650Y43730D02*
Y46270D01*
Y43730D02*
X15270D01*
Y46270D01*
X22000Y39100D02*
Y40900D01*
X17000Y39100D02*
Y40900D01*
X22000D01*
X17000Y39100D02*
X22000D01*
X16500D02*
Y40900D01*
X11500Y39100D02*
Y40900D01*
X16500D01*
X11500Y39100D02*
X16500D01*
X35330Y18150D02*
Y23018D01*
Y18150D02*
Y25770D01*
X40410Y18150D02*
Y25770D01*
X35330D02*
X40410D01*
X35330Y18150D02*
X40410D01*
X33400Y20300D02*
X33800D01*
X33400Y19500D02*
X33800D01*
X33400Y22400D02*
X33800D01*
X33400Y21600D02*
X33800D01*
X20430Y310D02*
X22970D01*
X20430D02*
Y10470D01*
X22970Y310D02*
Y10470D01*
X20430D02*
X22970D01*
X23630Y8010D02*
X26170D01*
Y390D02*
Y8010D01*
X23630Y390D02*
X26170D01*
X23630D02*
Y8010D01*
X26630D02*
X29170D01*
Y390D02*
Y8010D01*
X26630Y390D02*
X29170D01*
X26630D02*
Y8010D01*
X12230Y310D02*
X14770D01*
X12230D02*
Y10470D01*
X14770Y310D02*
Y10470D01*
X12230D02*
X14770D01*
X44300Y22500D02*
X49300D01*
X44300Y20700D02*
X49300D01*
Y22500D01*
X44300Y20700D02*
Y22500D01*
X45085Y6475D02*
Y17175D01*
X38915Y6475D02*
Y17175D01*
X16076Y14871D02*
X16124Y14824D01*
X16172Y14871D01*
X16124Y14919D01*
X16076D01*
X15981Y14824D01*
X15933Y14728D01*
Y14586D01*
X15981Y14443D01*
X16076Y14348D01*
X16219Y14300D01*
X16314D01*
X16457Y14348D01*
X16552Y14443D01*
X16600Y14586D01*
Y14681D01*
X16552Y14824D01*
X16457Y14919D01*
X15933Y14586D02*
X15981Y14490D01*
X16076Y14395D01*
X16219Y14348D01*
X16314D01*
X16457Y14395D01*
X16552Y14490D01*
X16600Y14586D01*
X15933Y15357D02*
X15981Y15214D01*
X16076Y15119D01*
X16219Y15071D01*
X16314D01*
X16457Y15119D01*
X16552Y15214D01*
X16600Y15357D01*
Y15452D01*
X16552Y15595D01*
X16457Y15690D01*
X16314Y15738D01*
X16219D01*
X16076Y15690D01*
X15981Y15595D01*
X15933Y15452D01*
Y15357D01*
X15981Y15262D01*
X16076Y15166D01*
X16219Y15119D01*
X16314D01*
X16457Y15166D01*
X16552Y15262D01*
X16600Y15357D01*
Y15452D02*
X16552Y15547D01*
X16457Y15643D01*
X16314Y15690D01*
X16219D01*
X16076Y15643D01*
X15981Y15547D01*
X15933Y15452D01*
Y16028D02*
X16600D01*
X15933Y16076D02*
X16600D01*
X16076D02*
X15981Y16171D01*
X15933Y16314D01*
Y16409D01*
X15981Y16552D01*
X16076Y16600D01*
X16600D01*
X15933Y16409D02*
X15981Y16504D01*
X16076Y16552D01*
X16600D01*
X15933Y15885D02*
Y16076D01*
X16600Y15885D02*
Y16219D01*
Y16409D02*
Y16742D01*
Y17157D02*
X16552Y17109D01*
X16410Y17061D01*
X15600D01*
Y17014D01*
X16410D01*
X16552Y17061D01*
X16600Y17157D01*
Y17252D01*
X16552Y17347D01*
X16457Y17395D01*
X15933Y16871D02*
Y17252D01*
Y17699D02*
X16600D01*
X15933Y17747D02*
X16600D01*
X16219D02*
X16076Y17794D01*
X15981Y17890D01*
X15933Y17985D01*
Y18128D01*
X15981Y18175D01*
X16029D01*
X16076Y18128D01*
X16029Y18080D01*
X15981Y18128D01*
X15933Y17556D02*
Y17747D01*
X16600Y17556D02*
Y17890D01*
X15933Y18613D02*
X15981Y18471D01*
X16076Y18375D01*
X16219Y18328D01*
X16314D01*
X16457Y18375D01*
X16552Y18471D01*
X16600Y18613D01*
Y18709D01*
X16552Y18851D01*
X16457Y18947D01*
X16314Y18994D01*
X16219D01*
X16076Y18947D01*
X15981Y18851D01*
X15933Y18709D01*
Y18613D01*
X15981Y18518D01*
X16076Y18423D01*
X16219Y18375D01*
X16314D01*
X16457Y18423D01*
X16552Y18518D01*
X16600Y18613D01*
Y18709D02*
X16552Y18804D01*
X16457Y18899D01*
X16314Y18947D01*
X16219D01*
X16076Y18899D01*
X15981Y18804D01*
X15933Y18709D01*
X15600Y19285D02*
X16600D01*
X15600Y19332D02*
X16600D01*
X15600Y19142D02*
Y19332D01*
X16600Y19142D02*
Y19475D01*
X15600Y19799D02*
X16600D01*
X15600Y19846D02*
X16600D01*
X15600Y19656D02*
Y19846D01*
X16600Y19656D02*
Y19989D01*
X16219Y20218D02*
Y20789D01*
X16124D01*
X16029Y20741D01*
X15981Y20694D01*
X15933Y20599D01*
Y20456D01*
X15981Y20313D01*
X16076Y20218D01*
X16219Y20170D01*
X16314D01*
X16457Y20218D01*
X16552Y20313D01*
X16600Y20456D01*
Y20551D01*
X16552Y20694D01*
X16457Y20789D01*
X16219Y20741D02*
X16076D01*
X15981Y20694D01*
X15933Y20456D02*
X15981Y20361D01*
X16076Y20265D01*
X16219Y20218D01*
X16314D01*
X16457Y20265D01*
X16552Y20361D01*
X16600Y20456D01*
X15933Y21084D02*
X16600D01*
X15933Y21132D02*
X16600D01*
X16219D02*
X16076Y21179D01*
X15981Y21275D01*
X15933Y21370D01*
Y21513D01*
X15981Y21560D01*
X16029D01*
X16076Y21513D01*
X16029Y21465D01*
X15981Y21513D01*
X15933Y20941D02*
Y21132D01*
X16600Y20941D02*
Y21275D01*
X15933Y22708D02*
X16600Y22993D01*
X15933Y22755D02*
X16505Y22993D01*
X15933Y23279D02*
X16600Y22993D01*
X15933Y22612D02*
Y22898D01*
Y23089D02*
Y23374D01*
X15791Y23512D02*
X15743Y23608D01*
X15600Y23750D01*
X16600D01*
X15648Y23703D02*
X16600D01*
Y23512D02*
Y23941D01*
X16505Y24160D02*
X16552Y24112D01*
X16600Y24160D01*
X16552Y24207D01*
X16505Y24160D01*
X15791Y24460D02*
X15838Y24507D01*
X15886Y24460D01*
X15838Y24412D01*
X15791D01*
X15695Y24460D01*
X15648Y24507D01*
X15600Y24650D01*
Y24841D01*
X15648Y24983D01*
X15695Y25031D01*
X15791Y25079D01*
X15886D01*
X15981Y25031D01*
X16076Y24888D01*
X16172Y24650D01*
X16219Y24555D01*
X16314Y24460D01*
X16457Y24412D01*
X16600D01*
X15600Y24841D02*
X15648Y24936D01*
X15695Y24983D01*
X15791Y25031D01*
X15886D01*
X15981Y24983D01*
X16076Y24841D01*
X16172Y24650D01*
X16505Y24412D02*
X16457Y24460D01*
Y24555D01*
X16552Y24793D01*
Y24936D01*
X16505Y25031D01*
X16457Y25079D01*
X16362D01*
X16457Y24555D02*
X16600Y24793D01*
Y24983D01*
X16552Y25031D01*
X16457Y25079D01*
X14091Y14548D02*
X14138Y14595D01*
X14186Y14548D01*
X14138Y14500D01*
X14091D01*
X13995Y14548D01*
X13948Y14595D01*
X13900Y14738D01*
Y14928D01*
X13948Y15071D01*
X14043Y15119D01*
X14186D01*
X14281Y15071D01*
X14329Y14928D01*
Y14786D01*
X13900Y14928D02*
X13948Y15024D01*
X14043Y15071D01*
X14186D01*
X14281Y15024D01*
X14329Y14928D01*
X14376Y15024D01*
X14472Y15119D01*
X14567Y15167D01*
X14710D01*
X14805Y15119D01*
X14852Y15071D01*
X14900Y14928D01*
Y14738D01*
X14852Y14595D01*
X14805Y14548D01*
X14710Y14500D01*
X14662D01*
X14614Y14548D01*
X14662Y14595D01*
X14710Y14548D01*
X14424Y15071D02*
X14567Y15119D01*
X14710D01*
X14805Y15071D01*
X14852Y15024D01*
X14900Y14928D01*
X14472Y15314D02*
Y16171D01*
X14329Y16395D02*
X14376D01*
Y16347D01*
X14329D01*
X14281Y16395D01*
X14233Y16490D01*
Y16680D01*
X14281Y16776D01*
X14329Y16823D01*
X14424Y16871D01*
X14757D01*
X14852Y16919D01*
X14900Y16966D01*
X14329Y16823D02*
X14757D01*
X14852Y16871D01*
X14900Y16966D01*
Y17014D01*
X14424Y16823D02*
X14472Y16776D01*
X14519Y16490D01*
X14567Y16347D01*
X14662Y16300D01*
X14757D01*
X14852Y16347D01*
X14900Y16490D01*
Y16633D01*
X14852Y16728D01*
X14757Y16823D01*
X14519Y16490D02*
X14567Y16395D01*
X14662Y16347D01*
X14757D01*
X14852Y16395D01*
X14900Y16490D01*
X14233Y17252D02*
X14900Y17775D01*
X14233Y17299D02*
X14900Y17823D01*
X14233D02*
X14900Y17252D01*
X14233Y17157D02*
Y17442D01*
Y17633D02*
Y17918D01*
X14900Y17157D02*
Y17442D01*
Y17633D02*
Y17918D01*
X13900Y18199D02*
X13948Y18152D01*
X13995Y18199D01*
X13948Y18247D01*
X13900Y18199D01*
X14233D02*
X14900D01*
X14233Y18247D02*
X14900D01*
X14233Y18056D02*
Y18247D01*
X14900Y18056D02*
Y18390D01*
X14329Y19047D02*
X14233Y19094D01*
X14424D01*
X14329Y19047D01*
X14281Y18999D01*
X14233Y18904D01*
Y18713D01*
X14281Y18618D01*
X14329Y18571D01*
X14424D01*
X14472Y18618D01*
X14519Y18713D01*
X14614Y18951D01*
X14662Y19047D01*
X14710Y19094D01*
X14376Y18571D02*
X14424Y18618D01*
X14472Y18713D01*
X14567Y18951D01*
X14614Y19047D01*
X14662Y19094D01*
X14805D01*
X14852Y19047D01*
X14900Y18951D01*
Y18761D01*
X14852Y18666D01*
X14805Y18618D01*
X14710Y18571D01*
X14900D01*
X14805Y18618D01*
X14233Y20442D02*
X14281Y20346D01*
X14329Y20299D01*
X14424Y20251D01*
X14519D01*
X14614Y20299D01*
X14662Y20346D01*
X14710Y20442D01*
Y20537D01*
X14662Y20632D01*
X14614Y20680D01*
X14519Y20727D01*
X14424D01*
X14329Y20680D01*
X14281Y20632D01*
X14233Y20537D01*
Y20442D01*
X14281Y20346D02*
X14376Y20299D01*
X14567D01*
X14662Y20346D01*
Y20632D02*
X14567Y20680D01*
X14376D01*
X14281Y20632D01*
X14329Y20680D02*
X14281Y20727D01*
X14233Y20822D01*
X14281D01*
Y20727D01*
X14614Y20299D02*
X14662Y20251D01*
X14757Y20204D01*
X14805D01*
X14900Y20251D01*
X14948Y20394D01*
Y20632D01*
X14995Y20775D01*
X15043Y20822D01*
X14805Y20204D02*
X14852Y20251D01*
X14900Y20394D01*
Y20632D01*
X14948Y20775D01*
X15043Y20822D01*
X15090D01*
X15186Y20775D01*
X15233Y20632D01*
Y20346D01*
X15186Y20204D01*
X15090Y20156D01*
X15043D01*
X14948Y20204D01*
X14900Y20346D01*
X13900Y21113D02*
X13948Y21065D01*
X13995Y21113D01*
X13948Y21160D01*
X13900Y21113D01*
X14233D02*
X14900D01*
X14233Y21160D02*
X14900D01*
X14233Y20970D02*
Y21160D01*
X14900Y20970D02*
Y21303D01*
X14233Y21627D02*
X14900D01*
X14233Y21675D02*
X14900D01*
X14376D02*
X14281Y21770D01*
X14233Y21913D01*
Y22008D01*
X14281Y22151D01*
X14376Y22198D01*
X14900D01*
X14233Y22008D02*
X14281Y22103D01*
X14376Y22151D01*
X14900D01*
X14376Y22198D02*
X14281Y22294D01*
X14233Y22436D01*
Y22532D01*
X14281Y22674D01*
X14376Y22722D01*
X14900D01*
X14233Y22532D02*
X14281Y22627D01*
X14376Y22674D01*
X14900D01*
X14233Y21484D02*
Y21675D01*
X14900Y21484D02*
Y21817D01*
Y22008D02*
Y22341D01*
Y22532D02*
Y22865D01*
X13900Y23084D02*
X14900D01*
X13900Y23131D02*
X14900D01*
X14376D02*
X14281Y23227D01*
X14233Y23322D01*
Y23417D01*
X14281Y23560D01*
X14376Y23655D01*
X14519Y23703D01*
X14614D01*
X14757Y23655D01*
X14852Y23560D01*
X14900Y23417D01*
Y23322D01*
X14852Y23227D01*
X14757Y23131D01*
X14233Y23417D02*
X14281Y23512D01*
X14376Y23608D01*
X14519Y23655D01*
X14614D01*
X14757Y23608D01*
X14852Y23512D01*
X14900Y23417D01*
X13900Y22941D02*
Y23131D01*
X14329Y23936D02*
X14376D01*
Y23888D01*
X14329D01*
X14281Y23936D01*
X14233Y24031D01*
Y24222D01*
X14281Y24317D01*
X14329Y24365D01*
X14424Y24412D01*
X14757D01*
X14852Y24460D01*
X14900Y24507D01*
X14329Y24365D02*
X14757D01*
X14852Y24412D01*
X14900Y24507D01*
Y24555D01*
X14424Y24365D02*
X14472Y24317D01*
X14519Y24031D01*
X14567Y23888D01*
X14662Y23841D01*
X14757D01*
X14852Y23888D01*
X14900Y24031D01*
Y24174D01*
X14852Y24269D01*
X14757Y24365D01*
X14519Y24031D02*
X14567Y23936D01*
X14662Y23888D01*
X14757D01*
X14852Y23936D01*
X14900Y24031D01*
X13900Y24841D02*
X14900D01*
X13900Y24888D02*
X14900D01*
X13900Y24698D02*
Y24888D01*
X14900Y24698D02*
Y25031D01*
D42*
X6000Y19900D02*
X6100Y20000D01*
Y20200D01*
X6000Y20300D01*
X5900D01*
X5800Y20200D01*
Y20000D01*
X5700Y19900D01*
X5600D01*
X5500Y20000D01*
Y20200D01*
X5600Y20300D01*
X6000Y19300D02*
X6100Y19400D01*
Y19600D01*
X6000Y19700D01*
X5600D01*
X5500Y19600D01*
Y19400D01*
X5600Y19300D01*
X6100Y19100D02*
X5500D01*
Y18701D01*
X6000Y22400D02*
X6100Y22500D01*
Y22700D01*
X6000Y22800D01*
X5900D01*
X5800Y22700D01*
Y22500D01*
X5700Y22400D01*
X5600D01*
X5500Y22500D01*
Y22700D01*
X5600Y22800D01*
X6100Y22200D02*
X5500D01*
Y21900D01*
X5600Y21800D01*
X6000D01*
X6100Y21900D01*
Y22200D01*
X5500Y21600D02*
X5900D01*
X6100Y21400D01*
X5900Y21201D01*
X5500D01*
X5800D01*
Y21600D01*
X6000Y24900D02*
X6100Y25000D01*
Y25200D01*
X6000Y25300D01*
X5600D01*
X5500Y25200D01*
Y25000D01*
X5600Y24900D01*
X5800D01*
Y25100D01*
X5500Y24700D02*
X6100D01*
X5500Y24300D01*
X6100D01*
Y24100D02*
X5500D01*
Y23800D01*
X5600Y23701D01*
X6000D01*
X6100Y23800D01*
Y24100D01*
X6000Y28200D02*
X6100Y28100D01*
Y27900D01*
X6000Y27800D01*
X5900D01*
X5800Y27900D01*
Y28000D01*
Y27900D01*
X5700Y27800D01*
X5600D01*
X5500Y27900D01*
Y28100D01*
X5600Y28200D01*
X5500Y27600D02*
X5600D01*
Y27500D01*
X5500D01*
Y27600D01*
X6000Y27100D02*
X6100Y27000D01*
Y26800D01*
X6000Y26700D01*
X5900D01*
X5800Y26800D01*
Y26900D01*
Y26800D01*
X5700Y26700D01*
X5600D01*
X5500Y26800D01*
Y27000D01*
X5600Y27100D01*
X6100Y26501D02*
X5700D01*
X5500Y26301D01*
X5700Y26101D01*
X6100D01*
X15500Y6300D02*
X15400Y6200D01*
Y6000D01*
X15500Y5900D01*
X15900D01*
X16000Y6000D01*
Y6200D01*
X15900Y6300D01*
X15700D01*
Y6100D01*
X16000Y6500D02*
X15400D01*
X16000Y6900D01*
X15400D01*
Y7100D02*
X16000D01*
Y7400D01*
X15900Y7499D01*
X15500D01*
X15400Y7400D01*
Y7100D01*
Y8600D02*
X16000D01*
Y8900D01*
X15900Y9000D01*
X15500D01*
X15400Y8900D01*
Y8600D01*
Y9200D02*
Y9400D01*
Y9300D01*
X16000D01*
Y9200D01*
Y9400D01*
X15400Y10000D02*
Y9800D01*
X15500Y9700D01*
X15900D01*
X16000Y9800D01*
Y10000D01*
X15900Y10100D01*
X15500D01*
X15400Y10000D01*
X15500Y3700D02*
X15400Y3600D01*
Y3400D01*
X15500Y3300D01*
X15900D01*
X16000Y3400D01*
Y3600D01*
X15900Y3700D01*
X15400Y3900D02*
X16000D01*
Y4300D01*
X15400Y4500D02*
X16000D01*
X15800D01*
X15400Y4899D01*
X15700Y4600D01*
X16000Y4899D01*
X15500Y500D02*
X15400Y600D01*
Y800D01*
X15500Y900D01*
X15600D01*
X15700Y800D01*
Y700D01*
Y800D01*
X15800Y900D01*
X15900D01*
X16000Y800D01*
Y600D01*
X15900Y500D01*
X16000Y1100D02*
X15900D01*
Y1200D01*
X16000D01*
Y1100D01*
X15500Y1600D02*
X15400Y1700D01*
Y1900D01*
X15500Y2000D01*
X15600D01*
X15700Y1900D01*
Y1800D01*
Y1900D01*
X15800Y2000D01*
X15900D01*
X16000Y1900D01*
Y1700D01*
X15900Y1600D01*
X15400Y2199D02*
X15800D01*
X16000Y2399D01*
X15800Y2599D01*
X15400D01*
X19600Y6100D02*
Y6500D01*
Y6300D01*
X20200D01*
X19600Y6700D02*
X20200Y7100D01*
X19600D02*
X20200Y6700D01*
X19700Y8800D02*
X19600Y8700D01*
Y8500D01*
X19700Y8400D01*
X20100D01*
X20200Y8500D01*
Y8700D01*
X20100Y8800D01*
X19900D01*
Y8600D01*
X20200Y9000D02*
X19600D01*
X20200Y9400D01*
X19600D01*
Y9600D02*
X20200D01*
Y9900D01*
X20100Y9999D01*
X19700D01*
X19600Y9900D01*
Y9600D01*
X20200Y3600D02*
X19600D01*
Y3900D01*
X19700Y4000D01*
X19900D01*
X20000Y3900D01*
Y3600D01*
Y3800D02*
X20200Y4000D01*
X19600Y4200D02*
X20200Y4600D01*
X19600D02*
X20200Y4200D01*
X19600Y500D02*
X19500Y600D01*
Y800D01*
X19600Y900D01*
X19700D01*
X19800Y800D01*
Y700D01*
Y800D01*
X19900Y900D01*
X20000D01*
X20100Y800D01*
Y600D01*
X20000Y500D01*
X20100Y1100D02*
X20000D01*
Y1200D01*
X20100D01*
Y1100D01*
X19600Y1600D02*
X19500Y1700D01*
Y1900D01*
X19600Y2000D01*
X19700D01*
X19800Y1900D01*
Y1800D01*
Y1900D01*
X19900Y2000D01*
X20000D01*
X20100Y1900D01*
Y1700D01*
X20000Y1600D01*
X19500Y2199D02*
X19900D01*
X20100Y2399D01*
X19900Y2599D01*
X19500D01*
X17100Y11300D02*
X17000Y11400D01*
X16800D01*
X16700Y11300D01*
Y11200D01*
X16800Y11100D01*
X17000D01*
X17100Y11000D01*
Y10900D01*
X17000Y10800D01*
X16800D01*
X16700Y10900D01*
X17300Y11400D02*
Y10800D01*
X17500Y11000D01*
X17700Y10800D01*
Y11400D01*
X17900D02*
Y10800D01*
X18200D01*
X18299Y10900D01*
Y11300D01*
X18200Y11400D01*
X17900D01*
X20300Y11500D02*
Y11000D01*
X20400Y10900D01*
X20600D01*
X20700Y11000D01*
Y11500D01*
X20900Y10900D02*
Y11300D01*
X21100Y11500D01*
X21300Y11300D01*
Y10900D01*
Y11200D01*
X20900D01*
X21500Y10900D02*
Y11500D01*
X21800D01*
X21899Y11400D01*
Y11200D01*
X21800Y11100D01*
X21500D01*
X21700D02*
X21899Y10900D01*
X22099Y11500D02*
X22499D01*
X22299D01*
Y10900D01*
X22999D02*
Y11500D01*
X22699Y11200D01*
X23099D01*
X11400Y600D02*
X11300Y700D01*
Y900D01*
X11400Y1000D01*
X11500D01*
X11600Y900D01*
Y800D01*
Y900D01*
X11700Y1000D01*
X11800D01*
X11900Y900D01*
Y700D01*
X11800Y600D01*
X11900Y1200D02*
X11800D01*
Y1300D01*
X11900D01*
Y1200D01*
X11400Y1700D02*
X11300Y1800D01*
Y2000D01*
X11400Y2100D01*
X11500D01*
X11600Y2000D01*
Y1900D01*
Y2000D01*
X11700Y2100D01*
X11800D01*
X11900Y2000D01*
Y1800D01*
X11800Y1700D01*
X11300Y2299D02*
X11700D01*
X11900Y2499D01*
X11700Y2699D01*
X11300D01*
X12000Y3700D02*
X11400D01*
Y4000D01*
X11500Y4100D01*
X11700D01*
X11800Y4000D01*
Y3700D01*
Y3900D02*
X12000Y4100D01*
X11400Y4300D02*
X12000Y4700D01*
X11400D02*
X12000Y4300D01*
X11500Y8900D02*
X11400Y8800D01*
Y8600D01*
X11500Y8500D01*
X11900D01*
X12000Y8600D01*
Y8800D01*
X11900Y8900D01*
X11700D01*
Y8700D01*
X12000Y9100D02*
X11400D01*
X12000Y9500D01*
X11400D01*
Y9700D02*
X12000D01*
Y10000D01*
X11900Y10099D01*
X11500D01*
X11400Y10000D01*
Y9700D01*
Y6200D02*
Y6600D01*
Y6400D01*
X12000D01*
X11400Y6800D02*
X12000Y7200D01*
X11400D02*
X12000Y6800D01*
X12000Y11400D02*
Y10900D01*
X12100Y10800D01*
X12300D01*
X12400Y10900D01*
Y11400D01*
X13000Y11300D02*
X12900Y11400D01*
X12700D01*
X12600Y11300D01*
Y11200D01*
X12700Y11100D01*
X12900D01*
X13000Y11000D01*
Y10900D01*
X12900Y10800D01*
X12700D01*
X12600Y10900D01*
X13200Y10800D02*
Y11200D01*
X13400Y11400D01*
X13599Y11200D01*
Y10800D01*
Y11100D01*
X13200D01*
X13799Y10800D02*
Y11400D01*
X14099D01*
X14199Y11300D01*
Y11100D01*
X14099Y11000D01*
X13799D01*
X13999D02*
X14199Y10800D01*
X14399Y11400D02*
X14799D01*
X14599D01*
Y10800D01*
X14999D02*
X15199D01*
X15099D01*
Y11400D01*
X14999Y11300D01*
X24600Y10500D02*
X25000D01*
X25200Y10300D01*
X25000Y10100D01*
X24600D01*
X24900D01*
Y10500D01*
X25200Y9900D02*
X24700D01*
X24600Y9800D01*
Y9600D01*
X24700Y9500D01*
X25200D01*
Y9300D02*
X24600Y8901D01*
X25200D02*
X24600Y9300D01*
Y8701D02*
Y8501D01*
Y8601D01*
X25200D01*
X25100Y8701D01*
X27600Y10500D02*
X28000D01*
X28200Y10300D01*
X28000Y10100D01*
X27600D01*
X27900D01*
Y10500D01*
X28200Y9900D02*
X27700D01*
X27600Y9800D01*
Y9600D01*
X27700Y9500D01*
X28200D01*
Y9300D02*
X27600Y8901D01*
X28200D02*
X27600Y9300D01*
Y8301D02*
Y8701D01*
X28000Y8301D01*
X28100D01*
X28200Y8401D01*
Y8601D01*
X28100Y8701D01*
X30500Y10500D02*
X30900D01*
X31100Y10300D01*
X30900Y10100D01*
X30500D01*
X30800D01*
Y10500D01*
X31100Y9900D02*
X30600D01*
X30500Y9800D01*
Y9600D01*
X30600Y9500D01*
X31100D01*
Y9300D02*
X30500Y8901D01*
X31100D02*
X30500Y9300D01*
X31000Y8701D02*
X31100Y8601D01*
Y8401D01*
X31000Y8301D01*
X30900D01*
X30800Y8401D01*
Y8501D01*
Y8401D01*
X30700Y8301D01*
X30600D01*
X30500Y8401D01*
Y8601D01*
X30600Y8701D01*
X33400Y10500D02*
X33800D01*
X34000Y10300D01*
X33800Y10100D01*
X33400D01*
X33700D01*
Y10500D01*
X34000Y9900D02*
X33500D01*
X33400Y9800D01*
Y9600D01*
X33500Y9500D01*
X34000D01*
Y9300D02*
X33400Y8901D01*
X34000D02*
X33400Y9300D01*
Y8401D02*
X34000D01*
X33700Y8701D01*
Y8301D01*
X36500Y10500D02*
X36900D01*
X37100Y10300D01*
X36900Y10100D01*
X36500D01*
X36800D01*
Y10500D01*
X37100Y9900D02*
X36600D01*
X36500Y9800D01*
Y9600D01*
X36600Y9500D01*
X37100D01*
Y9300D02*
X36500Y8901D01*
X37100D02*
X36500Y9300D01*
X37100Y8301D02*
Y8701D01*
X36800D01*
X36900Y8501D01*
Y8401D01*
X36800Y8301D01*
X36600D01*
X36500Y8401D01*
Y8601D01*
X36600Y8701D01*
X40600Y24800D02*
Y24200D01*
X40900D01*
X41000Y24300D01*
Y24400D01*
X40900Y24500D01*
X40600D01*
X40900D01*
X41000Y24600D01*
Y24700D01*
X40900Y24800D01*
X40600D01*
X41500D02*
X41300D01*
X41200Y24700D01*
Y24300D01*
X41300Y24200D01*
X41500D01*
X41600Y24300D01*
Y24700D01*
X41500Y24800D01*
X42100D02*
X41900D01*
X41800Y24700D01*
Y24300D01*
X41900Y24200D01*
X42100D01*
X42199Y24300D01*
Y24700D01*
X42100Y24800D01*
X42399D02*
X42799D01*
X42599D01*
Y24200D01*
X42999Y24700D02*
X43099Y24800D01*
X43299D01*
X43399Y24700D01*
Y24300D01*
X43299Y24200D01*
X43099D01*
X42999Y24300D01*
Y24700D01*
X40600Y22300D02*
Y21700D01*
X40900D01*
X41000Y21800D01*
Y21900D01*
X40900Y22000D01*
X40600D01*
X40900D01*
X41000Y22100D01*
Y22200D01*
X40900Y22300D01*
X40600D01*
X41500D02*
X41300D01*
X41200Y22200D01*
Y21800D01*
X41300Y21700D01*
X41500D01*
X41600Y21800D01*
Y22200D01*
X41500Y22300D01*
X42100D02*
X41900D01*
X41800Y22200D01*
Y21800D01*
X41900Y21700D01*
X42100D01*
X42199Y21800D01*
Y22200D01*
X42100Y22300D01*
X42399D02*
X42799D01*
X42599D01*
Y21700D01*
X42999D02*
X43199D01*
X43099D01*
Y22300D01*
X42999Y22200D01*
X40700Y19200D02*
Y19800D01*
X41100Y19200D01*
Y19800D01*
X41300Y19200D02*
Y19800D01*
X41600D01*
X41700Y19700D01*
Y19500D01*
X41600Y19400D01*
X41300D01*
X41500D02*
X41700Y19200D01*
X42299Y19700D02*
X42200Y19800D01*
X42000D01*
X41900Y19700D01*
Y19600D01*
X42000Y19500D01*
X42200D01*
X42299Y19400D01*
Y19300D01*
X42200Y19200D01*
X42000D01*
X41900Y19300D01*
X42499Y19800D02*
X42899D01*
X42699D01*
Y19200D01*
D43*
X46800Y6500D02*
X48133D01*
X46800Y15400D02*
X48133D01*
X47466Y16066D02*
Y14733D01*
M02*
