M48
;Layer_Color=9474304
;FILE_FORMAT=4:3
METRIC,LZ
;TYPE=PLATED
T1F00S00C0.711
T2F00S00C0.900
T3F00S00C1.500
T4F00S00C3.000
;TYPE=NON_PLATED
T5F00S00C0.900
%
T01
X00341Y00141
X00421Y0014175
Y00123
Y00161
X00458Y00164
Y00216
X00448Y00273
X0038Y00268
X00338Y00276
X003275Y00231
X00419Y00067
X00277Y001065
X0026288Y0010872
X00259Y00149
X00249Y00159
X0024Y00147
X00263Y00167
X00266Y00195
X00273Y00216
X00246Y00211
X00231
X00216Y00211
X00205Y002
X00211Y00172
X00234Y00185
X00228Y0026
X00243
X00258
X00177Y00245
X00152Y00242
X00152Y00227
X00152Y00212
X00103Y00212
X00103Y00197
X00116Y00188
X00107Y00175
X0013897Y0016876
X00149Y00158
X00157Y00119
X00138Y00119
X00099Y00227
X00083Y00249
X00074Y00265
X00106Y00278
X00074Y0029
X0006595Y0034095
X0012095
X0017595Y0034095
X0023095Y0034095
X0028595
X00287Y00288
X00239Y0029
X00185Y00295
X001885Y004695
X0001Y00342
X0034095Y0034095
X00346Y00314
X00375Y00292
X00402Y00313
X0039595Y00342
X0045095
X00468Y0029
X0049Y00295
X0047635Y00399
X00311Y00469
T02
X00309Y000166
Y00042
Y000674
X00339
Y00042
Y000166
X00369
Y00042
Y000674
X00366Y001942
X003914
Y002196
X00366
Y00245
X003914
X00279Y000674
Y00042
Y000166
X00249
Y00042
Y000674
X00217Y000666
Y00092
X00175
Y000666
Y000412
Y000158
X00135Y000158
Y000412
Y000666
Y00092
X00217Y000412
Y000158
X00039Y00196
Y002214
Y002468
Y002722
X000892Y0045
X001146
X0014
X002242
X002496
X00275
X003602
X003856
X00411
T03
X00475Y00085
Y00125
T04
X0047Y0003
X0003
Y0047
X0047
T05
X000595Y00096
Y0014
M30
